<?xml version="1.0" encoding="utf-8"?>
<!-- Generator: Adobe Illustrator 16.0.0, SVG Export Plug-In . SVG Version: 6.00 Build 0)  -->
<!DOCTYPE svg PUBLIC "-//W3C//DTD SVG 1.1//EN" "http://www.w3.org/Graphics/SVG/1.1/DTD/svg11.dtd">
<svg version="1.1" id="Layer_1" xmlns="http://www.w3.org/2000/svg" xmlns:xlink="http://www.w3.org/1999/xlink" x="0px" y="0px"
	 width="960px" height="382px" viewBox="0 0 960 382" enable-background="new 0 0 960 382" xml:space="preserve">
<g>
	<path fill-rule="evenodd" clip-rule="evenodd" fill="#A71C22" d="M261.078,58.471h536.76l-11.645,31.24l-9.473-0.014
		l-107.227-0.174l-40.717,156.442h0.006l-2.35,9.013l-9.291,0.007l0,0l-13.844,0.019l-9.271,0.014l45.201-165.273H524.172
		l-3.996,13.411l99.09-0.007l-2.42,8.967l-42.068,156.93l64.879-0.429l44.676-163.366v-2.698h252.25
		c4.963,1.835,4.904,7.519,0,8.998H691.938l-45.469,166.038l-74.105,0.468l0,0l-9.291,0.052l44.67-165.986l9.104-0.006
		l-99.357,0.019l-9.68,0.007l9.732-31.421h133.482l-45.246,165.247h13.729l43.221-165.253l117.336-0.058l4.857-13.177H261.078
		C255.222,66.406,255.971,59.295,261.078,58.471"/>
	<rect x="240.439" y="297.642" fill-rule="evenodd" clip-rule="evenodd" fill="#A71C22" width="124.652" height="8.999"/>
	<polygon fill-rule="evenodd" clip-rule="evenodd" fill="#A71C22" points="894.67,283.238 361.192,283.238 351.418,321.043 
		884.9,321.043 	"/>
	<path fill-rule="evenodd" clip-rule="evenodd" fill="#254B81" d="M922.516,175.513h-29.727l1.115-13.489
		c0.223-3.289-0.129-5.249-1.045-5.891c-0.914-0.642-3.373-0.966-7.375-0.966c-4.99,0-8.604,1.362-10.822,4.067
		c-1.24,1.577-2.531,5.146-3.875,10.718l-13.213,54.823c-1.766,7.279-1.52,11.924,0.711,13.924c1.396,1.284,5.102,1.92,11.096,1.92
		c3.426,0,6.279-2.635,8.551-7.923l6.922-16.278h27.088l-14.779,57.186h-54.148c-7.436,0-12.287-0.572-14.584-1.713
		c-2.973-1.285-6.969-5.14-11.99-11.568c-4.58-5.846-7.176-10.491-7.779-13.923c-0.455-2.848,0.201-7.922,1.953-15.201
		l16.947-70.245c1.303-5.43,3.088-9.745,5.371-12.956c2.271-3.218,7.15-7.747,14.623-13.6c7.486-5.858,12.645-9.355,15.494-10.503
		c2.842-1.135,7.76-1.706,14.76-1.706h58.488L922.516,175.513z M708.986,122.403h108.588l-8.285,49.47h-35.982l0.604-10.491
		c0.111-2.861-0.109-4.717-0.693-5.566c-0.578-0.863-2.367-1.291-5.365-1.291H753.5l-6.715,27.846h35.775l-6.826,28.268h-35.762
		l-7.539,31.271h15.844c2.855,0,4.84-0.396,5.955-1.18c1.123-0.786,2.311-2.608,3.568-5.463l5.775-13.281h37.053l-15.877,51.618
		H672.531l7.947-32.984h7.285l20.555-85.239h-7.279L708.986,122.403z M521.811,122.403h59.961l-7.947,32.978h-7.287l-20.553,85.239
		h7.279l-7.953,32.984h-59.967l7.951-32.984h7.287l20.553-85.239h-7.285L521.811,122.403z M401.229,122.403h109.013l-9.283,51.826
		H465.19l1.23-12.205c0.327-3.146,0.142-5.177-0.564-6.105c-0.702-0.928-2.628-1.394-5.765-1.394h-13.92l-7.543,31.271h37.049
		l-7.386,30.623h-37.052l-5.833,24.201h7.283l-7.955,32.984h-59.968l7.954-32.984h7.28l20.553-85.239h-7.275L401.229,122.403z"/>
	<path fill="#FFFFFF" d="M841.328,294.813h3.32v2.114c0.305-0.856,0.752-1.473,1.355-1.836c0.604-0.369,1.525-0.584,2.771-0.661
		v2.543c-0.246-0.006-0.422-0.014-0.52-0.014c-2.375,0-3.568,1.298-3.568,3.894v9.478c0,0.378,0.053,0.715,0.129,1.026h-3.488
		c0.076-0.332,0.121-0.675,0.121-1.026v-14.493C841.449,295.468,841.404,295.131,841.328,294.813 M830.473,295.819
		c-0.584,0-1.135,0.155-1.68,0.466c-0.533,0.299-0.961,0.727-1.285,1.253c-0.838,1.355-1.252,3.166-1.252,5.437
		c0,2.362,0.422,4.21,1.264,5.586c0.332,0.519,0.754,0.94,1.287,1.246c0.531,0.311,1.082,0.461,1.666,0.461
		c0.578,0,1.135-0.15,1.668-0.461c0.531-0.306,0.959-0.728,1.277-1.246c0.85-1.376,1.273-3.218,1.273-5.521
		c0-2.336-0.424-4.185-1.273-5.534C832.723,296.396,831.744,295.831,830.473,295.819z M830.453,294.431
		c2.459,0,4.359,0.823,5.73,2.484c1.275,1.551,1.92,3.601,1.92,6.144c0,2.712-0.734,4.841-2.201,6.404
		c-1.361,1.46-3.18,2.187-5.416,2.187c-2.408,0-4.277-0.792-5.6-2.381c-1.369-1.642-2.049-3.796-2.049-6.462
		c0-2.44,0.674-4.445,2.016-6.001C826.189,295.254,828.053,294.469,830.453,294.431z M815.842,294.813h3.49
		c-0.084,0.33-0.129,0.668-0.129,1.024v14.493c0,0.352,0.045,0.694,0.129,1.026h-3.49c0.078-0.312,0.123-0.648,0.123-1.026v-14.493
		C815.965,295.455,815.92,295.125,815.842,294.813z M817.645,290.356c0.625,0,1.125,0.129,1.48,0.389s0.531,0.622,0.531,1.077
		c0,0.48-0.176,0.856-0.531,1.122c-0.355,0.279-0.844,0.409-1.453,0.409c-1.375,0-2.063-0.5-2.063-1.505
		c0-0.454,0.188-0.818,0.551-1.084C816.523,290.492,817.023,290.356,817.645,290.356z M805.787,294.813h3.32v2.114
		c0.299-0.856,0.752-1.473,1.35-1.836c0.611-0.369,1.531-0.584,2.777-0.661v2.543c-0.246-0.006-0.428-0.014-0.52-0.014
		c-2.375,0-3.568,1.298-3.568,3.894v9.478c0,0.378,0.039,0.715,0.129,1.026h-3.488c0.076-0.332,0.123-0.675,0.123-1.026v-14.493
		C805.91,295.468,805.863,295.131,805.787,294.813z M791.396,301.042h7.908c-0.084-0.941-0.215-1.706-0.402-2.298
		c-0.279-0.882-0.76-1.589-1.434-2.121c-0.551-0.454-1.219-0.675-2.012-0.675c-1.115,0-2.037,0.447-2.744,1.343
		C792,298.174,791.559,299.426,791.396,301.042z M801.979,310.261c-1.072,0.524-2.012,0.889-2.836,1.09
		c-0.813,0.201-1.764,0.299-2.848,0.299c-2.822,0-4.963-0.818-6.43-2.479c-1.299-1.454-1.947-3.458-1.947-6.009
		c0-2.809,0.74-4.995,2.232-6.559c1.375-1.446,3.199-2.173,5.477-2.173c2.205,0,3.924,0.7,5.15,2.089
		c1.232,1.395,1.895,3.387,1.986,5.975h-11.465c0,1.816,0.201,3.258,0.604,4.354c0.791,2.16,2.393,3.236,4.828,3.236
		c1.666,0,3.256-0.642,4.76-1.926L801.979,310.261z M778.439,296.493c-0.578,0-1.143,0.15-1.674,0.435
		c-0.539,0.279-0.967,0.668-1.291,1.155c-0.375,0.545-0.635,1.193-0.779,1.953c-0.143,0.746-0.213,1.822-0.213,3.198
		c0,1.428,0.09,2.53,0.273,3.328c0.174,0.784,0.498,1.486,0.951,2.097c0.645,0.83,1.48,1.238,2.531,1.238
		c1.219,0,2.154-0.577,2.803-1.759c0.643-1.174,0.967-2.866,0.967-5.08c0-2.244-0.318-3.925-0.934-5.027
		c-0.254-0.454-0.617-0.824-1.09-1.096C779.51,296.662,778.998,296.52,778.439,296.493z M774.58,309.495v5.807
		c0,0.37,0.039,0.7,0.115,1.006h-3.477c0.078-0.338,0.117-0.676,0.117-1.006v-19.464c0-0.331-0.039-0.681-0.117-1.024h3.309v2.361
		c1.213-1.83,2.816-2.744,4.826-2.744c1.715,0,3.102,0.648,4.191,1.939c0.637,0.766,1.109,1.667,1.416,2.705
		c0.297,1.045,0.439,2.297,0.439,3.763c0,2.9-0.609,5.127-1.855,6.677c-0.539,0.662-1.219,1.175-2.037,1.563
		c-0.824,0.384-1.686,0.572-2.588,0.572C777.182,311.649,775.734,310.936,774.58,309.495z M764.01,311.357v-2.265
		c-0.584,0.805-1.16,1.382-1.705,1.745c-0.871,0.539-1.959,0.812-3.277,0.812c-1.764,0-3.127-0.5-4.08-1.498
		c-0.787-0.831-1.174-2.024-1.174-3.589v-10.737c0-0.35-0.047-0.682-0.125-1.012h3.484c-0.078,0.292-0.123,0.636-0.123,1.012v10.374
		c0,0.896,0.221,1.602,0.635,2.134c0.564,0.676,1.402,1.006,2.52,1.006c1.127,0,2.049-0.324,2.744-0.966
		c0.693-0.656,1.043-1.492,1.043-2.524v-10.023c0-0.357-0.037-0.694-0.115-1.012h3.477c-0.078,0.278-0.117,0.603-0.117,1.012v14.506
		c0,0.332,0.039,0.676,0.117,1.026H764.01z M737.65,310.041l0.713-2.519c0.572,0.494,1.039,0.856,1.416,1.116
		c1.115,0.778,2.322,1.168,3.611,1.168c1.305,0,2.33-0.384,3.076-1.155c0.654-0.687,0.986-1.524,0.986-2.505
		c0-1.166-0.467-2.102-1.414-2.814c-0.436-0.324-1.5-0.896-3.211-1.7c-1.766-0.844-3.012-1.674-3.738-2.504
		c-0.855-0.968-1.283-2.103-1.283-3.406c0-1.162,0.324-2.213,0.967-3.153c1.252-1.804,3.27-2.699,6.066-2.699
		c1.582,0,3.23,0.376,4.93,1.136l-0.67,2.244c-1.627-1.128-3.111-1.687-4.469-1.687c-1.084,0-1.959,0.337-2.633,1.019
		c-0.572,0.59-0.857,1.298-0.857,2.122c0,0.862,0.285,1.563,0.863,2.114s1.746,1.232,3.529,2.03
		c1.953,0.902,3.277,1.772,3.977,2.628c0.863,1.077,1.299,2.316,1.299,3.737c0,1.207-0.318,2.323-0.949,3.348
		c-1.271,2.076-3.385,3.108-6.344,3.108c-1.064,0-2.031-0.124-2.906-0.37C739.732,311.06,738.752,310.637,737.65,310.041z
		 M712.379,294.813h3.303v2.316c0.494-0.778,0.998-1.344,1.506-1.714c0.947-0.655,2.152-0.985,3.621-0.985
		c1.873,0,3.309,0.577,4.268,1.725c0.623,0.734,0.936,1.759,0.936,3.069v11.106c0,0.338,0.045,0.688,0.121,1.026h-3.482
		c0.078-0.26,0.123-0.597,0.123-1.026v-10.619c0-0.948-0.279-1.675-0.824-2.194c-0.545-0.512-1.33-0.765-2.342-0.765
		c-1.266,0-2.211,0.345-2.855,1.045c-0.668,0.746-1.004,1.7-1.004,2.866v9.667c0,0.358,0.037,0.694,0.115,1.026h-3.484
		c0.078-0.305,0.125-0.643,0.125-1.026v-14.506C712.504,295.476,712.457,295.144,712.379,294.813z M699.82,292.911l2.146-4.897
		h2.775l-3.328,4.897H699.82z M701.525,295.819c-0.584,0-1.143,0.155-1.68,0.466c-0.539,0.299-0.969,0.727-1.291,1.253
		c-0.832,1.355-1.254,3.166-1.254,5.437c0,2.362,0.422,4.21,1.266,5.586c0.324,0.519,0.754,0.94,1.285,1.246
		c0.531,0.311,1.09,0.461,1.674,0.461c0.576,0,1.129-0.15,1.66-0.461c0.533-0.306,0.961-0.728,1.285-1.246
		c0.844-1.376,1.266-3.218,1.266-5.521c0-2.336-0.422-4.185-1.266-5.534C703.77,296.396,702.797,295.831,701.525,295.819z
		 M701.512,294.431c2.447,0,4.355,0.823,5.723,2.484c1.279,1.551,1.92,3.601,1.92,6.144c0,2.712-0.738,4.841-2.205,6.404
		c-1.363,1.46-3.166,2.187-5.41,2.187c-2.414,0-4.281-0.792-5.605-2.381c-1.363-1.642-2.045-3.796-2.045-6.462
		c0-2.44,0.668-4.445,2.018-6.001C697.244,295.254,699.111,294.469,701.512,294.431z M686.889,294.813h3.49
		c-0.084,0.33-0.131,0.668-0.131,1.024v14.493c0,0.352,0.047,0.694,0.131,1.026h-3.49c0.078-0.312,0.123-0.648,0.123-1.026v-14.493
		C687.012,295.455,686.967,295.125,686.889,294.813z M688.691,290.356c0.629,0,1.123,0.129,1.48,0.389
		c0.363,0.26,0.539,0.622,0.539,1.077c0,0.48-0.176,0.856-0.539,1.122c-0.357,0.279-0.844,0.409-1.447,0.409
		c-1.383,0-2.068-0.5-2.068-1.505c0-0.454,0.193-0.818,0.557-1.084C687.576,290.492,688.068,290.356,688.691,290.356z
		 M684.008,310.475c-1.221,0.513-2.102,0.843-2.621,0.98c-0.531,0.129-1.219,0.194-2.063,0.194c-2.336,0-4.152-0.721-5.43-2.168
		c-1.371-1.543-2.053-3.619-2.053-6.228c0-2.972,0.865-5.262,2.59-6.864c1.422-1.305,3.271-1.959,5.574-1.959
		c1.258,0,2.594,0.24,4.002,0.713v2.42c-0.785-0.622-1.447-1.038-1.984-1.258c-0.525-0.228-1.137-0.331-1.816-0.331
		c-1.506,0-2.688,0.609-3.523,1.855c-0.902,1.317-1.35,3.05-1.35,5.21c0,1.888,0.336,3.471,1.02,4.736
		c0.789,1.459,2.01,2.186,3.664,2.186c0.715,0,1.375-0.129,1.967-0.396c0.604-0.266,1.277-0.72,2.023-1.375V310.475z
		 M665.115,301.496c-0.416,0.22-0.721,0.376-0.908,0.46c-0.193,0.078-1.012,0.396-2.467,0.94c-1.121,0.436-1.906,0.96-2.336,1.59
		c-0.445,0.643-0.668,1.343-0.668,2.108c0,0.883,0.24,1.59,0.734,2.114c0.494,0.54,1.148,0.806,1.973,0.806
		c1.266,0,2.258-0.525,2.984-1.57c0.453-0.661,0.688-1.375,0.688-2.147V301.496z M665.225,309.145
		c-0.668,0.778-1.277,1.33-1.816,1.661c-0.979,0.564-2.082,0.844-3.322,0.844c-1.277,0-2.301-0.364-3.068-1.116
		c-0.959-0.896-1.434-2.103-1.434-3.614c0-1.797,0.682-3.146,2.031-4.028c0.604-0.402,1.168-0.694,1.705-0.902
		c0.527-0.194,1.732-0.584,3.621-1.148c0.785-0.233,1.344-0.532,1.674-0.882c0.33-0.338,0.5-0.811,0.5-1.414
		c0-0.714-0.285-1.272-0.838-1.713c-0.564-0.436-1.291-0.662-2.186-0.662c-0.779,0-1.467,0.123-2.076,0.37
		c-0.611,0.253-1.35,0.707-2.23,1.381l-0.521-2.108c1.131-0.532,2.104-0.889,2.908-1.082c0.822-0.202,1.766-0.299,2.828-0.299
		c1.713,0,3.029,0.337,3.957,1.005c0.928,0.662,1.396,1.603,1.396,2.828v9.817c0,0.96,0.316,1.434,0.979,1.434
		c0.254,0,0.609-0.176,1.078-0.514v1.83c-0.857,0.546-1.674,0.818-2.439,0.818c-0.818,0-1.416-0.182-1.824-0.559
		C665.738,310.715,665.428,310.065,665.225,309.145z M654.002,310.475c-1.215,0.513-2.096,0.843-2.621,0.98
		c-0.525,0.129-1.213,0.194-2.064,0.194c-2.336,0-4.145-0.721-5.43-2.168c-1.361-1.543-2.051-3.619-2.051-6.228
		c0-2.972,0.871-5.262,2.596-6.864c1.414-1.305,3.27-1.959,5.568-1.959c1.264,0,2.594,0.24,4.002,0.713v2.42
		c-0.785-0.622-1.447-1.038-1.979-1.258c-0.531-0.228-1.143-0.331-1.824-0.331c-1.512,0-2.686,0.609-3.521,1.855
		c-0.896,1.317-1.352,3.05-1.352,5.21c0,1.888,0.338,3.471,1.025,4.736c0.791,1.459,2.006,2.186,3.666,2.186
		c0.715,0,1.369-0.129,1.967-0.396c0.596-0.266,1.271-0.72,2.018-1.375V310.475z M635.283,311.357v-2.265
		c-0.596,0.805-1.168,1.382-1.713,1.745c-0.861,0.539-1.959,0.812-3.275,0.812c-1.771,0-3.135-0.5-4.074-1.498
		c-0.793-0.831-1.188-2.024-1.188-3.589v-10.737c0-0.35-0.039-0.682-0.117-1.012h3.484c-0.084,0.292-0.123,0.636-0.123,1.012v10.374
		c0,0.896,0.207,1.602,0.635,2.134c0.559,0.676,1.4,1.006,2.518,1.006c1.129,0,2.037-0.324,2.738-0.966
		c0.701-0.656,1.051-1.492,1.051-2.524v-10.023c0-0.357-0.039-0.694-0.117-1.012h3.479c-0.078,0.278-0.117,0.603-0.117,1.012v14.506
		c0,0.332,0.039,0.676,0.117,1.026H635.283z M614.074,296.182c-0.875,0-1.635,0.318-2.264,0.954
		c-1.051,1.07-1.576,3.036-1.576,5.904c0,4.366,1.227,6.545,3.664,6.545c1.273,0,2.24-0.57,2.895-1.731
		c0.662-1.142,0.986-2.841,0.986-5.073C617.779,298.439,616.547,296.239,614.074,296.182z M617.656,308.957
		c-0.557,0.771-1.057,1.33-1.498,1.674c-0.883,0.687-1.986,1.019-3.33,1.019c-1.92,0-3.398-0.772-4.43-2.329
		c-1.053-1.609-1.584-3.698-1.584-6.262c0-2.646,0.598-4.781,1.783-6.409c1.084-1.474,2.641-2.219,4.652-2.219
		c0.986,0,1.816,0.168,2.506,0.505c0.676,0.338,1.297,0.884,1.855,1.636v-7.033c0-0.369-0.039-0.707-0.117-1.012h3.477
		c-0.076,0.312-0.115,0.656-0.115,1.012v20.793c0,0.352,0.039,0.694,0.115,1.026h-3.314V308.957z M593.061,290.181h10.977v1.719
		c-0.324-0.103-0.648-0.155-0.998-0.155h-6.313v8.064h6.143c0.441,0,0.832-0.045,1.168-0.137v1.727
		c-0.283-0.072-0.66-0.098-1.135-0.098h-6.176v8.351h6.131c0.344,0,0.732-0.053,1.18-0.15v1.856h-10.963
		c0.07-0.312,0.115-0.643,0.115-1.006v-19.152C593.189,290.777,593.145,290.44,593.061,290.181z M569.756,301.042h7.914
		c-0.09-0.941-0.219-1.706-0.408-2.298c-0.277-0.882-0.758-1.589-1.428-2.121c-0.557-0.454-1.225-0.675-2.016-0.675
		c-1.117,0-2.039,0.447-2.744,1.343C570.359,298.174,569.912,299.426,569.756,301.042z M580.33,310.261
		c-1.07,0.524-2.004,0.889-2.828,1.09c-0.811,0.201-1.764,0.299-2.848,0.299c-2.822,0-4.963-0.818-6.424-2.479
		c-1.303-1.454-1.957-3.458-1.957-6.009c0-2.809,0.744-4.995,2.236-6.559c1.375-1.446,3.199-2.173,5.477-2.173
		c2.205,0,3.924,0.7,5.152,2.089c1.232,1.395,1.887,3.387,1.984,5.975h-11.457c0,1.816,0.193,3.258,0.596,4.354
		c0.791,2.16,2.395,3.236,4.828,3.236c1.66,0,3.256-0.642,4.762-1.926L580.33,310.261z M556.17,296.182
		c-0.883,0-1.635,0.318-2.271,0.954c-1.049,1.07-1.576,3.036-1.576,5.904c0,4.366,1.221,6.545,3.666,6.545
		c1.271,0,2.238-0.57,2.895-1.731c0.654-1.142,0.984-2.841,0.984-5.073C559.867,298.439,558.637,296.239,556.17,296.182z
		 M559.744,308.957c-0.551,0.771-1.057,1.33-1.504,1.674c-0.877,0.687-1.984,1.019-3.316,1.019c-1.92,0-3.398-0.772-4.438-2.329
		c-1.051-1.609-1.584-3.698-1.584-6.262c0-2.646,0.598-4.781,1.793-6.409c1.076-1.474,2.633-2.219,4.652-2.219
		c0.979,0,1.816,0.168,2.496,0.505c0.682,0.338,1.305,0.884,1.855,1.636v-7.033c0-0.369-0.039-0.707-0.115-1.012h3.482
		c-0.078,0.312-0.123,0.656-0.123,1.012v20.793c0,0.352,0.045,0.694,0.123,1.026h-3.322V308.957z M523.238,294.813h3.309v2.316
		c0.492-0.778,0.992-1.344,1.498-1.714c0.955-0.655,2.16-0.985,3.619-0.985c1.883,0,3.311,0.577,4.277,1.725
		c0.623,0.734,0.934,1.759,0.934,3.069v11.106c0,0.338,0.039,0.688,0.117,1.026h-3.479c0.078-0.26,0.117-0.597,0.117-1.026v-10.619
		c0-0.948-0.271-1.675-0.818-2.194c-0.543-0.512-1.336-0.765-2.34-0.765c-1.266,0-2.213,0.345-2.863,1.045
		c-0.674,0.746-1.012,1.7-1.012,2.866v9.667c0,0.358,0.053,0.694,0.131,1.026h-3.49c0.076-0.305,0.123-0.643,0.123-1.026v-14.506
		C523.361,295.476,523.314,295.144,523.238,294.813z M510.678,292.911l2.16-4.897h2.77l-3.328,4.897H510.678z M512.391,295.819
		c-0.584,0-1.143,0.155-1.682,0.466c-0.537,0.299-0.967,0.727-1.291,1.253c-0.836,1.355-1.252,3.166-1.252,5.437
		c0,2.362,0.422,4.21,1.271,5.586c0.318,0.519,0.746,0.94,1.277,1.246c0.533,0.311,1.092,0.461,1.676,0.461
		c0.57,0,1.127-0.15,1.66-0.461c0.531-0.306,0.959-0.728,1.277-1.246c0.85-1.376,1.271-3.218,1.271-5.521
		c0-2.336-0.422-4.185-1.271-5.534C514.635,296.396,513.662,295.831,512.391,295.819z M512.369,294.431
		c2.447,0,4.355,0.823,5.723,2.484c1.279,1.551,1.928,3.601,1.928,6.144c0,2.712-0.74,4.841-2.205,6.404
		c-1.369,1.46-3.172,2.187-5.424,2.187c-2.4,0-4.27-0.792-5.594-2.381c-1.361-1.642-2.051-3.796-2.051-6.462
		c0-2.44,0.676-4.445,2.025-6.001C508.102,295.254,509.969,294.469,512.369,294.431z M497.752,294.813h3.484
		c-0.078,0.33-0.123,0.668-0.123,1.024v14.493c0,0.352,0.045,0.694,0.123,1.026h-3.484c0.08-0.312,0.125-0.648,0.125-1.026v-14.493
		C497.877,295.455,497.832,295.125,497.752,294.813z M499.557,290.356c0.623,0,1.115,0.129,1.48,0.389
		c0.35,0.26,0.531,0.622,0.531,1.077c0,0.48-0.182,0.856-0.531,1.122c-0.365,0.279-0.844,0.409-1.455,0.409
		c-1.375,0-2.063-0.5-2.063-1.505c0-0.454,0.182-0.818,0.559-1.084C498.439,290.492,498.934,290.356,499.557,290.356z
		 M494.871,310.475c-1.219,0.513-2.1,0.843-2.625,0.98c-0.527,0.129-1.215,0.194-2.064,0.194c-2.336,0-4.145-0.721-5.428-2.168
		c-1.367-1.543-2.047-3.619-2.047-6.228c0-2.972,0.861-5.262,2.586-6.864c1.42-1.305,3.275-1.959,5.57-1.959
		c1.258,0,2.594,0.24,4.008,0.713v2.42c-0.789-0.622-1.451-1.038-1.984-1.258c-0.531-0.228-1.135-0.331-1.822-0.331
		c-1.506,0-2.684,0.609-3.52,1.855c-0.902,1.317-1.35,3.05-1.35,5.21c0,1.888,0.338,3.471,1.021,4.736
		c0.789,1.459,2.004,2.186,3.658,2.186c0.721,0,1.377-0.129,1.973-0.396c0.598-0.266,1.271-0.72,2.023-1.375V310.475z
		 M476.142,311.357v-2.265c-0.584,0.805-1.158,1.382-1.703,1.745c-0.87,0.539-1.966,0.812-3.276,0.812
		c-1.772,0-3.13-0.5-4.078-1.498c-0.788-0.831-1.181-2.024-1.181-3.589v-10.737c0-0.35-0.045-0.682-0.12-1.012h3.484
		c-0.082,0.292-0.124,0.636-0.124,1.012v10.374c0,0.896,0.211,1.602,0.636,2.134c0.562,0.676,1.395,1.006,2.514,1.006
		c1.132,0,2.044-0.324,2.745-0.966c0.697-0.656,1.044-1.492,1.044-2.524v-10.023c0-0.357-0.039-0.694-0.12-1.012h3.487
		c-0.081,0.278-0.123,0.603-0.123,1.012v14.506c0,0.332,0.042,0.676,0.123,1.026H476.142z M456.97,296.352h-2.456v-1.538h2.456
		v-3.192l3.302-0.356c-0.039,0.609-0.062,1.012-0.062,1.213v2.336h2.669v1.538h-2.669v11.963c0,0.979,0.409,1.473,1.229,1.473
		c0.389,0,0.889-0.162,1.485-0.494v1.714c-0.898,0.429-1.833,0.643-2.79,0.643c-1.083,0-1.885-0.26-2.401-0.786
		c-0.512-0.532-0.765-1.349-0.765-2.458V296.352z M448.64,294.813h3.484c-0.078,0.33-0.12,0.668-0.12,1.024v14.493
		c0,0.352,0.042,0.694,0.12,1.026h-3.484c0.081-0.312,0.123-0.648,0.123-1.026v-14.493
		C448.763,295.455,448.721,295.125,448.64,294.813z M450.443,290.356c0.626,0,1.119,0.129,1.479,0.389
		c0.357,0.26,0.536,0.622,0.536,1.077c0,0.48-0.179,0.856-0.536,1.122c-0.36,0.279-0.843,0.409-1.45,0.409
		c-1.375,0-2.063-0.5-2.063-1.505c0-0.454,0.181-0.818,0.548-1.084C449.324,290.492,449.82,290.356,450.443,290.356z
		 M439.781,296.352h-2.449v-1.538h2.449v-3.192l3.305-0.356c-0.042,0.609-0.065,1.012-0.065,1.213v2.336h2.667v1.538h-2.667v11.963
		c0,0.979,0.408,1.473,1.23,1.473c0.389,0,0.892-0.162,1.485-0.494v1.714c-0.899,0.429-1.83,0.643-2.787,0.643
		c-1.086,0-1.887-0.26-2.4-0.786c-0.512-0.532-0.768-1.349-0.768-2.458V296.352z M424.19,310.235l0.561-2.246
		c0.938,0.766,1.758,1.304,2.462,1.609c0.708,0.299,1.473,0.454,2.313,0.454c1.038,0,1.835-0.285,2.407-0.869
		c0.525-0.545,0.788-1.181,0.788-1.888s-0.247-1.266-0.75-1.674c-0.506-0.409-1.589-0.941-3.266-1.603
		c-1.645-0.649-2.748-1.382-3.309-2.188c-0.513-0.752-0.772-1.588-0.772-2.51c0-1.727,0.743-3.037,2.223-3.945
		c1.031-0.63,2.257-0.946,3.672-0.946c1.573,0,3.218,0.362,4.937,1.103l-0.548,2.044c-1.463-1.052-2.823-1.577-4.059-1.577
		c-0.888,0-1.615,0.233-2.173,0.695c-0.597,0.492-0.901,1.103-0.901,1.849c0,0.622,0.223,1.116,0.668,1.479
		c0.444,0.369,1.395,0.823,2.838,1.381c1.719,0.662,2.913,1.35,3.588,2.084c0.671,0.726,1.002,1.687,1.002,2.887
		c0,1.718-0.655,3.068-1.969,4.055c-1.083,0.817-2.552,1.22-4.389,1.22C427.723,311.649,425.951,311.182,424.19,310.235z
		 M407.682,294.813h3.305v2.316c0.496-0.778,0.993-1.344,1.502-1.714c0.954-0.655,2.154-0.985,3.617-0.985
		c1.878,0,3.309,0.577,4.276,1.725c0.623,0.734,0.934,1.759,0.934,3.069v11.106c0,0.338,0.042,0.688,0.123,1.026h-3.487
		c0.081-0.26,0.123-0.597,0.123-1.026v-10.619c0-0.948-0.275-1.675-0.817-2.194c-0.555-0.512-1.34-0.765-2.349-0.765
		c-1.259,0-2.212,0.345-2.855,1.045c-0.671,0.746-1.012,1.7-1.012,2.866v9.667c0,0.358,0.043,0.694,0.123,1.026h-3.483
		c0.077-0.305,0.12-0.643,0.12-1.026v-14.506C407.802,295.476,407.759,295.144,407.682,294.813z M399.455,290.181h3.815
		c-0.078,0.246-0.124,0.584-0.136,1.006v19.145c0.012,0.436,0.058,0.78,0.136,1.026h-3.815c0.091-0.312,0.139-0.648,0.139-1.026
		v-19.145C399.594,290.829,399.545,290.499,399.455,290.181z"/>
	<path fill="#254B81" d="M488.637,99.377c-0.439,0.24-0.768,0.403-0.977,0.493c-0.199,0.091-1.08,0.428-2.633,1.019
		c-1.207,0.447-2.043,1.012-2.508,1.693c-0.477,0.688-0.713,1.44-0.713,2.258c0,0.94,0.26,1.693,0.787,2.271
		c0.529,0.577,1.227,0.856,2.105,0.856c1.359,0,2.428-0.558,3.205-1.681c0.49-0.707,0.732-1.466,0.732-2.296V99.377z
		 M488.754,107.565c-0.717,0.843-1.363,1.434-1.945,1.778c-1.041,0.609-2.229,0.915-3.557,0.915c-1.365,0-2.462-0.396-3.289-1.2
		c-1.022-0.96-1.535-2.245-1.535-3.867c0-1.92,0.73-3.36,2.18-4.321c0.639-0.421,1.249-0.739,1.819-0.953
		c0.568-0.221,1.859-0.63,3.885-1.239c0.836-0.253,1.436-0.565,1.791-0.941c0.359-0.37,0.533-0.876,0.533-1.524
		c0-0.753-0.305-1.356-0.898-1.83c-0.6-0.473-1.377-0.713-2.342-0.713c-0.834,0-1.57,0.136-2.219,0.402
		c-0.652,0.266-1.447,0.752-2.388,1.479l-0.561-2.264c1.2-0.558,2.245-0.941,3.116-1.161c0.881-0.208,1.885-0.312,3.027-0.312
		c1.834,0,3.244,0.363,4.236,1.071c1,0.72,1.5,1.726,1.5,3.03v10.523c0,1.025,0.342,1.531,1.045,1.531
		c0.277,0,0.66-0.182,1.16-0.545v1.953c-0.922,0.59-1.791,0.882-2.621,0.882c-0.869,0-1.518-0.194-1.953-0.597
		C489.307,109.266,488.977,108.564,488.754,107.565z M476.735,108.993c-1.307,0.558-2.248,0.902-2.809,1.051
		c-0.567,0.149-1.304,0.214-2.216,0.214c-2.501,0-4.44-0.772-5.813-2.329c-1.464-1.642-2.193-3.867-2.193-6.656
		c0-3.192,0.921-5.651,2.773-7.364c1.521-1.395,3.503-2.096,5.969-2.096c1.346,0,2.777,0.253,4.289,0.766v2.588
		c-0.84-0.668-1.55-1.109-2.121-1.35c-0.568-0.247-1.223-0.357-1.953-0.357c-1.619,0-2.875,0.662-3.773,1.999
		c-0.964,1.401-1.446,3.263-1.446,5.573c0,2.024,0.363,3.711,1.096,5.073c0.843,1.564,2.147,2.349,3.925,2.349
		c0.766,0,1.466-0.143,2.112-0.429c0.639-0.292,1.359-0.772,2.16-1.473V108.993z M456.211,92.222h3.734
		c-0.087,0.357-0.13,0.714-0.13,1.103v15.525c0,0.37,0.042,0.734,0.13,1.09h-3.734c0.084-0.331,0.13-0.694,0.13-1.09V93.325
		C456.341,92.916,456.295,92.552,456.211,92.222z M458.138,87.44c0.675,0,1.207,0.136,1.589,0.428
		c0.38,0.279,0.571,0.662,0.571,1.142c0,0.519-0.191,0.921-0.571,1.213c-0.382,0.292-0.902,0.435-1.556,0.435
		c-1.474,0-2.21-0.539-2.21-1.609c0-0.493,0.198-0.876,0.588-1.168C456.941,87.589,457.473,87.44,458.138,87.44z M444.789,93.623
		c-1.463,0-2.54,0.552-3.238,1.642c-0.665,1.058-0.999,2.427-0.999,4.113c0,1.901,0.363,3.374,1.09,4.399
		c0.727,1.038,1.765,1.544,3.114,1.544c1.44,0,2.501-0.532,3.192-1.609c0.71-1.135,1.064-2.583,1.064-4.321
		c0-1.816-0.37-3.231-1.107-4.23C447.167,94.155,446.129,93.649,444.789,93.623z M437.694,111.62l-0.862-2.563l3.805-2.771
		c-1.041-0.584-1.836-1.2-2.378-1.849c-0.973-1.135-1.459-2.711-1.459-4.716c0-2.576,0.743-4.548,2.229-5.943
		c1.382-1.297,3.228-1.946,5.531-1.946c0.379,0,0.979,0.026,1.807,0.058c0.512-0.208,0.921-0.564,1.216-1.07
		c0.302-0.519,0.474-1.149,0.532-1.901h3.309c-0.106,0.798-0.346,1.427-0.707,1.901c-0.36,0.461-1.042,0.992-2.034,1.602
		c1.025,0.5,1.836,1.109,2.423,1.849c1.106,1.382,1.664,3.134,1.664,5.236c0,2.193-0.633,3.952-1.897,5.308
		c-0.986,1.044-2.352,1.732-4.1,2.05c-0.36,0.058-1.09,0.142-2.196,0.246c-0.685,0.071-1.288,0.259-1.794,0.577l-3.229,1.972
		c3.069-0.733,5.389-1.096,6.953-1.096c1.816,0,3.396,0.279,4.733,0.83c0.678,0.273,1.213,0.669,1.599,1.168
		c0.389,0.506,0.584,1.064,0.584,1.68c0,1.161-0.639,2.063-1.914,2.712c-1.275,0.649-3.056,0.973-5.35,0.973
		c-2.394,0-5.285-0.506-8.661-1.531v-0.668c2.637,0.7,4.928,1.051,6.881,1.051c1.378,0,2.491-0.195,3.34-0.578
		c0.866-0.382,1.298-0.921,1.298-1.596c0-0.629-0.458-1.135-1.373-1.499c-0.912-0.363-2.144-0.545-3.698-0.545
		C442.119,110.563,440.031,110.913,437.694,111.62z M424.038,90.184l2.31-5.255h2.971l-3.568,5.255H424.038z M425.867,93.292
		c-0.626,0-1.222,0.168-1.8,0.5c-0.571,0.331-1.032,0.785-1.378,1.35c-0.892,1.453-1.344,3.393-1.344,5.826
		c0,2.524,0.454,4.509,1.363,5.989c0.343,0.552,0.798,0.993,1.372,1.324c0.565,0.337,1.161,0.5,1.787,0.5
		c0.62,0,1.21-0.162,1.778-0.5c0.574-0.331,1.028-0.772,1.375-1.324c0.908-1.479,1.362-3.452,1.362-5.923
		c0-2.498-0.454-4.477-1.362-5.93C428.277,93.915,427.229,93.312,425.867,93.292z M425.845,91.813c2.63,0,4.674,0.889,6.137,2.66
		c1.372,1.661,2.056,3.854,2.056,6.579c0,2.906-0.788,5.19-2.358,6.864c-1.462,1.564-3.396,2.342-5.803,2.342
		c-2.583,0-4.578-0.85-5.999-2.556c-1.462-1.751-2.196-4.055-2.196-6.916c0-2.615,0.72-4.756,2.168-6.43
		C421.276,92.688,423.275,91.845,425.845,91.813z M414.231,85.475c-0.085,0.324-0.13,0.687-0.13,1.096v22.279
		c0,0.37,0.045,0.734,0.13,1.09h-3.734c0.088-0.344,0.13-0.707,0.13-1.09V86.571c0-0.396-0.042-0.759-0.13-1.096H414.231z
		 M398.897,93.292c-0.626,0-1.22,0.168-1.797,0.5c-0.574,0.331-1.035,0.785-1.378,1.35c-0.898,1.453-1.343,3.393-1.343,5.826
		c0,2.524,0.451,4.509,1.363,5.989c0.34,0.552,0.794,0.993,1.369,1.324c0.568,0.337,1.162,0.5,1.788,0.5
		c0.62,0,1.213-0.162,1.781-0.5c0.574-0.331,1.028-0.772,1.372-1.324c0.912-1.479,1.362-3.452,1.362-5.923
		c0-2.498-0.45-4.477-1.362-5.93C401.31,93.915,400.259,93.312,398.897,93.292z M398.877,91.813c2.627,0,4.671,0.889,6.135,2.66
		c1.375,1.661,2.06,3.854,2.06,6.579c0,2.906-0.792,5.19-2.362,6.864c-1.463,1.564-3.396,2.342-5.8,2.342
		c-2.585,0-4.581-0.85-5.998-2.556c-1.463-1.751-2.196-4.055-2.196-6.916c0-2.615,0.72-4.756,2.164-6.43
		C394.307,92.688,396.308,91.845,398.877,91.813z M372.5,92.222h3.542V94.7c0.532-0.824,1.064-1.44,1.609-1.823
		c1.021-0.707,2.309-1.064,3.873-1.064c2.014,0,3.548,0.61,4.584,1.843c0.668,0.785,0.999,1.882,0.999,3.296v11.898
		c0,0.364,0.046,0.727,0.13,1.09h-3.727c0.081-0.272,0.126-0.636,0.126-1.09V97.457c0-1.005-0.295-1.784-0.879-2.335
		c-0.586-0.552-1.431-0.83-2.511-0.83c-1.352,0-2.371,0.376-3.059,1.128c-0.72,0.792-1.084,1.816-1.084,3.068v10.361
		c0,0.383,0.046,0.746,0.13,1.09H372.5c0.088-0.324,0.13-0.681,0.13-1.09V93.305C372.63,92.929,372.588,92.579,372.5,92.222z
		 M369.461,108.993c-1.308,0.558-2.248,0.902-2.81,1.051c-0.564,0.149-1.304,0.214-2.215,0.214c-2.498,0-4.438-0.772-5.813-2.329
		c-1.459-1.642-2.192-3.867-2.192-6.656c0-3.192,0.924-5.651,2.774-7.364c1.518-1.395,3.51-2.096,5.969-2.096
		c1.349,0,2.777,0.253,4.289,0.766v2.588c-0.84-0.668-1.551-1.109-2.122-1.35c-0.568-0.247-1.22-0.357-1.952-0.357
		c-1.616,0-2.875,0.662-3.771,1.999c-0.966,1.401-1.45,3.263-1.45,5.573c0,2.024,0.364,3.711,1.097,5.073
		c0.847,1.564,2.147,2.349,3.925,2.349c0.766,0,1.469-0.143,2.108-0.429c0.642-0.292,1.362-0.772,2.164-1.473V108.993z
		 M341.793,98.891h8.474c-0.088-1.006-0.231-1.823-0.432-2.465c-0.295-0.941-0.808-1.694-1.528-2.271
		c-0.6-0.473-1.316-0.713-2.164-0.713c-1.197,0-2.177,0.473-2.936,1.427C342.438,95.822,341.968,97.165,341.793,98.891z
		 M353.128,108.766c-1.148,0.564-2.151,0.954-3.027,1.168c-0.872,0.22-1.901,0.324-3.059,0.324c-3.027,0-5.317-0.882-6.884-2.653
		c-1.395-1.563-2.088-3.711-2.088-6.436c0-3.01,0.798-5.353,2.39-7.033c1.476-1.551,3.426-2.323,5.865-2.323
		c2.362,0,4.205,0.746,5.519,2.239c1.32,1.486,2.027,3.627,2.128,6.403h-12.279c0,1.94,0.214,3.484,0.65,4.652
		c0.842,2.315,2.563,3.477,5.164,3.477c1.788,0,3.487-0.687,5.106-2.063L353.128,108.766z M322.58,87.259h16.45v2.056
		c-0.542-0.098-1.016-0.143-1.411-0.143h-4.886v19.678c0,0.396,0.055,0.76,0.149,1.09h-4.084c0.097-0.324,0.146-0.681,0.146-1.09
		V89.172h-4.918c-0.466,0-0.947,0.045-1.446,0.143V87.259z"/>
	<path fill-rule="evenodd" clip-rule="evenodd" fill="#254B81" d="M182.434,28.283c89.851,0,162.717,72.866,162.717,162.717
		c0,89.852-72.866,162.717-162.717,162.717c-89.852,0-162.717-72.865-162.717-162.717C19.717,101.149,92.583,28.283,182.434,28.283"
		/>
	<path fill-rule="evenodd" clip-rule="evenodd" fill="#FFFFFF" d="M182.434,37.067c85.001,0,153.936,68.928,153.936,153.933
		s-68.935,153.932-153.936,153.932S28.496,276.005,28.496,191S97.433,37.067,182.434,37.067"/>
	<g>
		<defs>
			<path id="SVGID_1_" d="M182.434,52.943c76.233,0,138.06,61.824,138.06,138.057c0,76.233-61.826,138.056-138.06,138.056
				c-76.236,0-138.063-61.822-138.063-138.056C44.372,114.767,106.198,52.943,182.434,52.943"/>
		</defs>
		<use xlink:href="#SVGID_1_"  overflow="visible" fill-rule="evenodd" clip-rule="evenodd" fill="#FFFFFF"/>
		<clipPath id="SVGID_2_">
			<use xlink:href="#SVGID_1_"  overflow="visible"/>
		</clipPath>
		
			<rect x="42.246" y="39.442" clip-path="url(#SVGID_2_)" fill-rule="evenodd" clip-rule="evenodd" fill="#254B81" width="140.188" height="14.26"/>
		
			<rect x="42.246" y="57.277" clip-path="url(#SVGID_2_)" fill-rule="evenodd" clip-rule="evenodd" fill="#254B81" width="140.188" height="14.254"/>
		
			<rect x="42.246" y="75.106" clip-path="url(#SVGID_2_)" fill-rule="evenodd" clip-rule="evenodd" fill="#254B81" width="140.188" height="14.254"/>
		
			<rect x="42.246" y="92.936" clip-path="url(#SVGID_2_)" fill-rule="evenodd" clip-rule="evenodd" fill="#254B81" width="140.188" height="14.267"/>
		
			<rect x="42.246" y="110.77" clip-path="url(#SVGID_2_)" fill-rule="evenodd" clip-rule="evenodd" fill="#254B81" width="140.188" height="14.261"/>
		
			<rect x="42.246" y="128.606" clip-path="url(#SVGID_2_)" fill-rule="evenodd" clip-rule="evenodd" fill="#254B81" width="140.188" height="14.254"/>
		
			<rect x="42.246" y="146.428" clip-path="url(#SVGID_2_)" fill-rule="evenodd" clip-rule="evenodd" fill="#254B81" width="140.188" height="14.26"/>
		
			<rect x="42.246" y="164.263" clip-path="url(#SVGID_2_)" fill-rule="evenodd" clip-rule="evenodd" fill="#254B81" width="140.188" height="14.255"/>
		
			<rect x="42.246" y="182.092" clip-path="url(#SVGID_2_)" fill-rule="evenodd" clip-rule="evenodd" fill="#254B81" width="140.188" height="14.255"/>
		
			<rect x="42.246" y="199.927" clip-path="url(#SVGID_2_)" fill-rule="evenodd" clip-rule="evenodd" fill="#254B81" width="140.188" height="14.254"/>
		
			<rect x="42.246" y="217.763" clip-path="url(#SVGID_2_)" fill-rule="evenodd" clip-rule="evenodd" fill="#254B81" width="140.188" height="14.254"/>
		
			<rect x="42.246" y="235.592" clip-path="url(#SVGID_2_)" fill-rule="evenodd" clip-rule="evenodd" fill="#254B81" width="140.188" height="14.254"/>
		
			<rect x="42.246" y="253.414" clip-path="url(#SVGID_2_)" fill-rule="evenodd" clip-rule="evenodd" fill="#254B81" width="140.188" height="14.26"/>
		
			<rect x="42.246" y="271.248" clip-path="url(#SVGID_2_)" fill-rule="evenodd" clip-rule="evenodd" fill="#254B81" width="140.188" height="14.262"/>
		
			<rect x="42.246" y="289.078" clip-path="url(#SVGID_2_)" fill-rule="evenodd" clip-rule="evenodd" fill="#254B81" width="140.188" height="14.26"/>
		
			<rect x="42.246" y="306.913" clip-path="url(#SVGID_2_)" fill-rule="evenodd" clip-rule="evenodd" fill="#254B81" width="140.188" height="14.26"/>
		
			<rect x="42.246" y="324.749" clip-path="url(#SVGID_2_)" fill-rule="evenodd" clip-rule="evenodd" fill="#254B81" width="140.188" height="14.254"/>
		
			<rect x="42.246" y="303.338" clip-path="url(#SVGID_2_)" fill-rule="evenodd" clip-rule="evenodd" fill="#FFFFFF" width="140.188" height="3.575"/>
		
			<rect x="182.434" y="53.703" clip-path="url(#SVGID_2_)" fill-rule="evenodd" clip-rule="evenodd" fill="#254B81" width="140.184" height="3.568"/>
		
			<rect x="182.434" y="71.532" clip-path="url(#SVGID_2_)" fill-rule="evenodd" clip-rule="evenodd" fill="#254B81" width="140.184" height="3.568"/>
		
			<rect x="182.434" y="89.36" clip-path="url(#SVGID_2_)" fill-rule="evenodd" clip-rule="evenodd" fill="#254B81" width="140.184" height="3.575"/>
		
			<rect x="182.434" y="107.202" clip-path="url(#SVGID_2_)" fill-rule="evenodd" clip-rule="evenodd" fill="#254B81" width="140.184" height="3.568"/>
		
			<rect x="182.434" y="125.031" clip-path="url(#SVGID_2_)" fill-rule="evenodd" clip-rule="evenodd" fill="#254B81" width="140.184" height="3.568"/>
		
			<rect x="182.434" y="142.86" clip-path="url(#SVGID_2_)" fill-rule="evenodd" clip-rule="evenodd" fill="#254B81" width="140.184" height="3.568"/>
		
			<rect x="182.434" y="160.688" clip-path="url(#SVGID_2_)" fill-rule="evenodd" clip-rule="evenodd" fill="#254B81" width="140.184" height="3.568"/>
		<path clip-path="url(#SVGID_2_)" fill-rule="evenodd" clip-rule="evenodd" fill="#33348D" d="M245.04,164.257h-62.566l0.003-3.568
			h62.778C245.202,161.862,245.13,163.057,245.04,164.257"/>
		
			<rect x="182.434" y="178.518" clip-path="url(#SVGID_2_)" fill-rule="evenodd" clip-rule="evenodd" fill="#254B81" width="140.184" height="3.568"/>
		
			<rect x="182.434" y="196.347" clip-path="url(#SVGID_2_)" fill-rule="evenodd" clip-rule="evenodd" fill="#254B81" width="140.184" height="3.58"/>
		
			<rect x="182.434" y="214.181" clip-path="url(#SVGID_2_)" fill-rule="evenodd" clip-rule="evenodd" fill="#254B81" width="140.184" height="3.575"/>
		
			<rect x="182.434" y="232.017" clip-path="url(#SVGID_2_)" fill-rule="evenodd" clip-rule="evenodd" fill="#254B81" width="140.184" height="3.568"/>
		
			<rect x="182.434" y="249.846" clip-path="url(#SVGID_2_)" fill-rule="evenodd" clip-rule="evenodd" fill="#254B81" width="140.184" height="3.568"/>
		
			<rect x="182.434" y="267.674" clip-path="url(#SVGID_2_)" fill-rule="evenodd" clip-rule="evenodd" fill="#254B81" width="140.184" height="3.574"/>
		
			<rect x="182.434" y="285.51" clip-path="url(#SVGID_2_)" fill-rule="evenodd" clip-rule="evenodd" fill="#254B81" width="140.184" height="3.568"/>
		
			<rect x="182.434" y="303.338" clip-path="url(#SVGID_2_)" fill-rule="evenodd" clip-rule="evenodd" fill="#254B81" width="140.184" height="3.575"/>
		
			<rect x="182.434" y="321.173" clip-path="url(#SVGID_2_)" fill-rule="evenodd" clip-rule="evenodd" fill="#254B81" width="140.184" height="3.568"/>
		<path clip-path="url(#SVGID_2_)" fill-rule="evenodd" clip-rule="evenodd" fill="#FFFFFF" d="M100.58,338.917l-2.819-51.015
			c-3.818-12.436-6.316-25.315-14.053-34.034c-18.348-20.645-30.266-45.792-28.248-73.521
			c7.509-77.556,47.618-116.309,126.938-108.244v266.814H100.58z"/>
		<polygon clip-path="url(#SVGID_2_)" fill-rule="evenodd" clip-rule="evenodd" fill="#254B81" points="99.797,324.741 
			99.597,321.173 182.398,321.173 182.398,324.741 		"/>
		<polygon clip-path="url(#SVGID_2_)" fill-rule="evenodd" clip-rule="evenodd" fill="#254B81" points="98.812,306.913 
			98.617,303.338 182.398,303.338 182.398,306.913 		"/>
		<path clip-path="url(#SVGID_2_)" fill-rule="evenodd" clip-rule="evenodd" fill="#254B81" d="M97.825,289.078l-0.065-1.176
			c-0.243-0.797-0.483-1.595-0.717-2.393h85.354v3.568H97.825z"/>
		<path clip-path="url(#SVGID_2_)" fill-rule="evenodd" clip-rule="evenodd" fill="#254B81" d="M92.807,271.248
			c-0.402-1.206-0.824-2.406-1.265-3.574h90.856v3.574H92.807z"/>
		<path clip-path="url(#SVGID_2_)" fill-rule="evenodd" clip-rule="evenodd" fill="#254B81" d="M83.305,253.414
			c-1.034-1.175-2.053-2.362-3.046-3.568h102.139v3.568H83.305z"/>
		<path clip-path="url(#SVGID_2_)" fill-rule="evenodd" clip-rule="evenodd" fill="#254B81" d="M70.018,235.585
			c-0.727-1.182-1.431-2.368-2.112-3.568h114.492v3.568H70.018z"/>
		<path clip-path="url(#SVGID_2_)" fill-rule="evenodd" clip-rule="evenodd" fill="#254B81" d="M61.156,217.756
			c-0.451-1.187-0.879-2.375-1.285-3.575h122.527v3.575H61.156z"/>
		<path clip-path="url(#SVGID_2_)" fill-rule="evenodd" clip-rule="evenodd" fill="#254B81" d="M56.328,199.927
			c-0.194-1.188-0.356-2.374-0.499-3.58h126.569v3.58H56.328z"/>
		<path clip-path="url(#SVGID_2_)" fill-rule="evenodd" clip-rule="evenodd" fill="#254B81" d="M55.352,182.086
			c0.033-0.578,0.065-1.162,0.107-1.739c0.058-0.616,0.126-1.22,0.191-1.829h126.747v3.568H55.352z"/>
		<path clip-path="url(#SVGID_2_)" fill-rule="evenodd" clip-rule="evenodd" fill="#254B81" d="M57.587,164.257
			c0.205-1.2,0.418-2.395,0.643-3.568h124.168v3.568H57.587z"/>
		<path clip-path="url(#SVGID_2_)" fill-rule="evenodd" clip-rule="evenodd" fill="#254B81" d="M61.519,146.428
			c0.331-1.207,0.682-2.394,1.038-3.568h119.841v3.568H61.519z"/>
		<path clip-path="url(#SVGID_2_)" fill-rule="evenodd" clip-rule="evenodd" fill="#254B81" d="M67.737,128.599
			c0.516-1.213,1.051-2.4,1.603-3.568h113.058v3.568H67.737z"/>
		<path clip-path="url(#SVGID_2_)" fill-rule="evenodd" clip-rule="evenodd" fill="#FFFFFF" d="M79.925,107.248l0.042-0.045h102.431
			v3.568H77.421C78.235,109.57,79.069,108.396,79.925,107.248"/>
		<path clip-path="url(#SVGID_2_)" fill-rule="evenodd" clip-rule="evenodd" fill="#254B81" d="M77.421,110.77
			c0.83-1.226,1.677-2.407,2.546-3.568h102.431v3.568H77.421z"/>
		<path clip-path="url(#SVGID_2_)" fill-rule="evenodd" clip-rule="evenodd" fill="#33348D" d="M93.391,92.936
			c1.476-1.246,2.991-2.433,4.548-3.575h84.459v3.575H93.391z"/>
		<path clip-path="url(#SVGID_2_)" fill-rule="evenodd" clip-rule="evenodd" fill="#254B81" d="M128.653,75.1
			c6.76-1.765,14.007-2.958,21.744-3.568h25.244c2.219,0.155,4.474,0.343,6.757,0.571V75.1H128.653z"/>
		<path clip-path="url(#SVGID_2_)" fill-rule="evenodd" clip-rule="evenodd" fill="#254B81" d="M93.391,92.936
			c0.938-1.246,1.901-2.433,2.896-3.575h53.772v3.575H93.391z"/>
		<path clip-path="url(#SVGID_2_)" fill-rule="evenodd" clip-rule="evenodd" fill="#254B81" d="M264.289,338.917l2.816-51.015
			c3.818-12.436,6.313-25.315,14.056-34.034c18.344-20.645,30.266-45.792,28.249-73.521
			c-7.513-77.556-47.621-116.309-126.945-108.244v266.814H264.289z"/>
		<polygon clip-path="url(#SVGID_2_)" fill-rule="evenodd" clip-rule="evenodd" fill="#FFFFFF" points="265.074,324.741 
			265.269,321.173 182.464,321.173 182.464,324.741 		"/>
		<polygon clip-path="url(#SVGID_2_)" fill-rule="evenodd" clip-rule="evenodd" fill="#FFFFFF" points="266.057,306.913 
			266.254,303.338 182.464,303.338 182.464,306.913 		"/>
		<path clip-path="url(#SVGID_2_)" fill-rule="evenodd" clip-rule="evenodd" fill="#FFFFFF" d="M267.04,289.078l0.065-1.176
			c0.247-0.797,0.483-1.595,0.72-2.393h-85.361v3.568H267.04z"/>
		<path clip-path="url(#SVGID_2_)" fill-rule="evenodd" clip-rule="evenodd" fill="#FFFFFF" d="M272.058,271.248
			c0.402-1.206,0.821-2.406,1.265-3.574h-90.859v3.574H272.058z"/>
		<path clip-path="url(#SVGID_2_)" fill-rule="evenodd" clip-rule="evenodd" fill="#FFFFFF" d="M281.56,253.414
			c1.038-1.175,2.053-2.362,3.046-3.568H182.464v3.568H281.56z"/>
		<path clip-path="url(#SVGID_2_)" fill-rule="evenodd" clip-rule="evenodd" fill="#FFFFFF" d="M294.847,235.585
			c0.73-1.182,1.431-2.368,2.116-3.568H182.464v3.568H294.847z"/>
		<path clip-path="url(#SVGID_2_)" fill-rule="evenodd" clip-rule="evenodd" fill="#FFFFFF" d="M303.709,217.756
			c0.454-1.187,0.879-2.375,1.284-3.575h-122.53v3.575H303.709z"/>
		<path clip-path="url(#SVGID_2_)" fill-rule="evenodd" clip-rule="evenodd" fill="#FFFFFF" d="M308.54,199.927
			c0.188-1.188,0.356-2.374,0.499-3.58H182.464v3.58H308.54z"/>
		<path clip-path="url(#SVGID_2_)" fill-rule="evenodd" clip-rule="evenodd" fill="#FFFFFF" d="M309.512,182.086
			c-0.028-0.578-0.064-1.162-0.103-1.739c-0.059-0.616-0.13-1.22-0.191-1.829H182.464v3.568H309.512z"/>
		<path clip-path="url(#SVGID_2_)" fill-rule="evenodd" clip-rule="evenodd" fill="#FFFFFF" d="M307.274,164.257
			c-0.2-1.2-0.411-2.395-0.635-3.568H182.464v3.568H307.274z"/>
		<path clip-path="url(#SVGID_2_)" fill-rule="evenodd" clip-rule="evenodd" fill="#FFFFFF" d="M303.346,146.428
			c-0.331-1.207-0.678-2.394-1.038-3.568H182.464v3.568H303.346z"/>
		<path clip-path="url(#SVGID_2_)" fill-rule="evenodd" clip-rule="evenodd" fill="#FFFFFF" d="M297.13,128.599
			c-0.522-1.213-1.058-2.4-1.606-3.568H182.464v3.568H297.13z"/>
		<path clip-path="url(#SVGID_2_)" fill-rule="evenodd" clip-rule="evenodd" fill="#FFFFFF" d="M287.444,110.77
			c-0.827-1.226-1.674-2.407-2.543-3.568H182.464v3.568H287.444z"/>
		<path clip-path="url(#SVGID_2_)" fill-rule="evenodd" clip-rule="evenodd" fill="#33348D" d="M231.82,107.202h-49.334v3.568
			h51.635C233.384,109.544,232.618,108.363,231.82,107.202"/>
		<path clip-path="url(#SVGID_2_)" fill-rule="evenodd" clip-rule="evenodd" fill="#FFFFFF" d="M271.474,92.936
			c-1.473-1.246-2.987-2.433-4.548-3.575h-84.462v3.575H271.474z"/>
		<path clip-path="url(#SVGID_2_)" fill-rule="evenodd" clip-rule="evenodd" fill="#FFFFFF" d="M236.216,75.1
			c-6.764-1.765-14.011-2.958-21.751-3.568h-25.238c-2.222,0.155-4.477,0.343-6.763,0.571V75.1H236.216z"/>
		<path clip-path="url(#SVGID_2_)" fill-rule="evenodd" clip-rule="evenodd" fill="#FFFFFF" d="M193.691,338.917
			c0,0,0.85-46.687,6.186-51.351c5.33-4.659,38.925,0.304,48.706-4.049c9.777-4.353,7.947-10.439,0.658-25.153l-0.088-7.604
			c4.087-2.406,5.113-4.795,4.74-8.939l-8.528-0.779c8.463-3.997,11.418-9.674,7.043-17.491l13.134-8.285
			c2.05-1.07,1.788-3.736,0.39-5.839l-22.117-34.282c8.784-58.593-20.077-87.898-61.317-103.041l-0.062,266.62L193.691,338.917z"/>
		<path clip-path="url(#SVGID_2_)" fill-rule="evenodd" clip-rule="evenodd" fill="#254B81" d="M194.197,324.741
			c0.054-1.154,0.12-2.354,0.188-3.568h-11.947v3.568H194.197z"/>
		<path clip-path="url(#SVGID_2_)" fill-rule="evenodd" clip-rule="evenodd" fill="#254B81" d="M195.462,306.913
			c0.124-1.213,0.253-2.407,0.39-3.575H182.44v3.575H195.462z"/>
		<path clip-path="url(#SVGID_2_)" fill-rule="evenodd" clip-rule="evenodd" fill="#254B81" d="M198.848,289.078
			c0.322-0.682,0.666-1.188,1.028-1.512c1.483-1.292,5.152-1.843,9.888-2.057h-27.321v3.568H198.848z"/>
		<path clip-path="url(#SVGID_2_)" fill-rule="evenodd" clip-rule="evenodd" fill="#254B81" d="M254.706,271.248
			c-0.299-1.102-0.704-2.29-1.203-3.574H182.45l-0.003,3.574H254.706z"/>
		<path clip-path="url(#SVGID_2_)" fill-rule="evenodd" clip-rule="evenodd" fill="#254B81" d="M249.185,253.414l-0.032-2.654
			c0.512-0.305,0.983-0.61,1.404-0.914h-68.103v3.568H249.185z"/>
		<path clip-path="url(#SVGID_2_)" fill-rule="evenodd" clip-rule="evenodd" fill="#254B81" d="M252.637,235.585
			c0.801-1.109,1.34-2.297,1.599-3.568H182.46v3.568H252.637z"/>
		<path clip-path="url(#SVGID_2_)" fill-rule="evenodd" clip-rule="evenodd" fill="#254B81" d="M261.59,217.756l3.951-2.491
			c0.52-0.271,0.889-0.642,1.13-1.084h-84.207l-0.004,3.575H261.59z"/>
		<polygon clip-path="url(#SVGID_2_)" fill-rule="evenodd" clip-rule="evenodd" fill="#254B81" points="259.8,199.927 
			257.496,196.347 182.466,196.347 182.464,199.927 		"/>
		<polygon clip-path="url(#SVGID_2_)" fill-rule="evenodd" clip-rule="evenodd" fill="#254B81" points="248.299,182.086 
			245.993,178.518 182.47,178.518 182.47,182.086 		"/>
		<path clip-path="url(#SVGID_2_)" fill-rule="evenodd" clip-rule="evenodd" fill="#254B81" d="M245.04,164.257
			c0.09-1.2,0.155-2.395,0.214-3.568h-62.778l-0.003,3.568H245.04z"/>
		<path clip-path="url(#SVGID_2_)" fill-rule="evenodd" clip-rule="evenodd" fill="#254B81" d="M245.052,146.428
			c-0.097-1.207-0.21-2.394-0.347-3.568H182.48l-0.004,3.568H245.052z"/>
		<path clip-path="url(#SVGID_2_)" fill-rule="evenodd" clip-rule="evenodd" fill="#254B81" d="M241.863,128.599
			c-0.35-1.213-0.73-2.4-1.132-3.568h-58.249v3.568H241.863z"/>
		<path clip-path="url(#SVGID_2_)" fill-rule="evenodd" clip-rule="evenodd" fill="#254B81" d="M234.11,110.77
			c-0.73-1.226-1.496-2.413-2.29-3.568h-49.334v3.568H234.11z"/>
		<path clip-path="url(#SVGID_2_)" fill-rule="evenodd" clip-rule="evenodd" fill="#254B81" d="M219.126,92.936
			c-1.395-1.233-2.835-2.42-4.318-3.575h-32.316l-0.002,3.575H219.126z"/>
		<path clip-path="url(#SVGID_2_)" fill-rule="evenodd" clip-rule="evenodd" fill="#254B81" d="M190.045,75.1
			c-2.459-1.051-4.983-2.057-7.549-2.997V75.1H190.045z"/>
		<path clip-path="url(#SVGID_2_)" fill-rule="evenodd" clip-rule="evenodd" fill="#254B81" d="M171.178,338.917
			c0,0-0.854-46.687-6.183-51.351c-5.333-4.659-38.934,0.304-48.708-4.049c-9.78-4.353-7.951-10.439-0.661-25.153l0.09-7.604
			c-4.09-2.406-5.108-4.795-4.742-8.939l8.531-0.779c-8.466-3.997-11.422-9.674-7.042-17.491l-13.135-8.285
			c-2.05-1.07-1.79-3.736-0.392-5.839l22.117-34.282c-8.788-58.593,20.077-87.898,61.32-103.041l0.062,266.62L171.178,338.917z"/>
		<path clip-path="url(#SVGID_2_)" fill-rule="evenodd" clip-rule="evenodd" fill="#FFFFFF" d="M170.675,324.741
			c-0.062-1.154-0.124-2.354-0.194-3.568h11.951v3.568H170.675z"/>
		<path clip-path="url(#SVGID_2_)" fill-rule="evenodd" clip-rule="evenodd" fill="#FFFFFF" d="M169.403,306.913
			c-0.123-1.213-0.25-2.407-0.389-3.575h13.41v3.575H169.403z"/>
		<path clip-path="url(#SVGID_2_)" fill-rule="evenodd" clip-rule="evenodd" fill="#FFFFFF" d="M166.02,289.078
			c-0.324-0.682-0.665-1.188-1.025-1.512c-1.485-1.292-5.155-1.843-9.891-2.057h27.317v3.568H166.02z"/>
		<path clip-path="url(#SVGID_2_)" fill-rule="evenodd" clip-rule="evenodd" fill="#FFFFFF" d="M110.159,271.248
			c0.302-1.102,0.704-2.29,1.207-3.574h71.053v3.574H110.159z"/>
		<path clip-path="url(#SVGID_2_)" fill-rule="evenodd" clip-rule="evenodd" fill="#FFFFFF" d="M115.684,253.414l0.032-2.654
			c-0.518-0.305-0.986-0.61-1.408-0.914h68.106v3.568H115.684z"/>
		<path clip-path="url(#SVGID_2_)" fill-rule="evenodd" clip-rule="evenodd" fill="#FFFFFF" d="M112.235,235.585
			c-0.808-1.109-1.346-2.297-1.606-3.568h71.779l0.003,3.568H112.235z"/>
		<path clip-path="url(#SVGID_2_)" fill-rule="evenodd" clip-rule="evenodd" fill="#FFFFFF" d="M103.275,217.756l-3.948-2.491
			c-0.522-0.271-0.889-0.642-1.129-1.084h84.207v3.575H103.275z"/>
		<polygon clip-path="url(#SVGID_2_)" fill-rule="evenodd" clip-rule="evenodd" fill="#FFFFFF" points="105.066,199.927 
			107.369,196.347 182.398,196.347 182.398,199.927 		"/>
		<polygon clip-path="url(#SVGID_2_)" fill-rule="evenodd" clip-rule="evenodd" fill="#FFFFFF" points="116.569,182.086 
			118.872,178.518 182.398,178.518 182.398,182.086 		"/>
		<path clip-path="url(#SVGID_2_)" fill-rule="evenodd" clip-rule="evenodd" fill="#FFFFFF" d="M119.826,164.257
			c-0.091-1.2-0.156-2.395-0.211-3.568h62.777l0.003,3.568H119.826z"/>
		<path clip-path="url(#SVGID_2_)" fill-rule="evenodd" clip-rule="evenodd" fill="#FFFFFF" d="M119.813,146.428
			c0.101-1.207,0.211-2.394,0.347-3.568h62.226l0.003,3.568H119.813z"/>
		<path clip-path="url(#SVGID_2_)" fill-rule="evenodd" clip-rule="evenodd" fill="#FFFFFF" d="M123.001,128.599
			c0.354-1.213,0.733-2.4,1.132-3.568h58.252v3.568H123.001z"/>
		<path clip-path="url(#SVGID_2_)" fill-rule="evenodd" clip-rule="evenodd" fill="#FFFFFF" d="M130.755,110.77
			c0.732-1.226,1.495-2.407,2.292-3.568h49.331v3.568H130.755z"/>
		<path clip-path="url(#SVGID_2_)" fill-rule="evenodd" clip-rule="evenodd" fill="#FFFFFF" d="M145.742,92.936
			c1.392-1.233,2.836-2.42,4.318-3.575h32.313v3.575H145.742z"/>
		<path clip-path="url(#SVGID_2_)" fill-rule="evenodd" clip-rule="evenodd" fill="#FFFFFF" d="M174.821,75.1
			c2.462-1.051,4.983-2.057,7.551-2.997V75.1H174.821z"/>
	</g>
</g>
</svg>
